<?xml version="1.0" encoding="utf-8"?>

<!-- The icon can be used freely in both personal and commercial projects with no attribution required, but always appreciated. 
You may NOT sub-license, resell, rent, redistribute or otherwise transfer the icon without express written permission from iconmonstr.com -->

<!DOCTYPE svg PUBLIC "-//W3C//DTD SVG 1.1//EN" "http://www.w3.org/Graphics/SVG/1.1/DTD/svg11.dtd">
<svg version="1.1" xmlns="http://www.w3.org/2000/svg" xmlns:xlink="http://www.w3.org/1999/xlink" x="0px" y="0px"
	 width="512px" height="512px" viewBox="0 0 512 512" enable-background="new 0 0 512 512" xml:space="preserve">
<path id="credit-card-6-icon" d="M181.71,307.5h-71.668v19h71.668V307.5z M242.21,270H110.042v19H242.21V270z M402,270h-59.668v19
	H402V270z M432,128.5H80c-16.568,0-30,13.432-30,30v195c0,16.568,13.432,30,30,30h352c16.568,0,30-13.432,30-30v-195
	C462,141.932,448.568,128.5,432,128.5z M90,158.5h332c5.522,0,10,4.477,10,10v21.166H80V168.5C80,162.977,84.478,158.5,90,158.5z
	 M422,353.5H90c-5.522,0-10-4.478-10-10V243.333h352V343.5C432,349.022,427.522,353.5,422,353.5z"/>
</svg>
